<svg xmlns="http://www.w3.org/2000/svg" fill="none" viewBox="0 0 72 61"><rect width="71.667" height="61" fill="#F9FAFB" rx="4"/><path fill="#B4C4D5" d="M54.552 46.472a25.312 25.312 0 0 0 5.066-10.68c.83-3.927.728-8.001-.298-11.879a25.227 25.227 0 0 0-5.595-10.398 24.305 24.305 0 0 0-9.63-6.571A23.72 23.72 0 0 0 32.6 5.68a23.96 23.96 0 0 0-10.765 4.33 24.825 24.825 0 0 0-7.608 8.946 25.587 25.587 0 0 0-2.735 11.545c.002 5.842 2.004 11.496 5.657 15.971l-.035.03c.122.15.26.28.386.428.157.184.325.358.487.537.485.545.99 1.063 1.514 1.556.162.147.325.292.487.432.557.495 1.13.962 1.722 1.4.077.053.147.123.223.178v-.022a23.734 23.734 0 0 0 13.919 4.53c4.982 0 9.843-1.582 13.918-4.53v.022c.077-.056.145-.125.223-.179a25.486 25.486 0 0 0 1.722-1.398c.163-.142.325-.287.487-.433a24.866 24.866 0 0 0 1.514-1.556c.162-.18.329-.353.487-.537.124-.148.265-.277.386-.43l-.038-.028ZM35.851 16.193c1.548 0 3.062.472 4.35 1.357a8.005 8.005 0 0 1 2.883 3.612 8.257 8.257 0 0 1 .445 4.65 8.12 8.12 0 0 1-2.142 4.12 7.765 7.765 0 0 1-4.009 2.203 7.63 7.63 0 0 1-4.523-.458 7.88 7.88 0 0 1-3.514-2.964 8.209 8.209 0 0 1-1.32-4.472c0-2.134.825-4.181 2.294-5.69a7.723 7.723 0 0 1 5.536-2.358Zm-13.906 30.28a9.059 9.059 0 0 1 2.584-6.24 8.572 8.572 0 0 1 6.102-2.578h10.44a8.572 8.572 0 0 1 6.102 2.577 9.059 9.059 0 0 1 2.584 6.24c-3.816 3.535-8.77 5.491-13.906 5.491-5.137 0-10.09-1.956-13.906-5.49Z"/></svg>